0
SECTION
2
HEADER
9
$INSUNITS
70
4
9
$ACADVER
1
AC1014
9
$HANDSEED
5
FFFF
0
ENDSEC
0
SECTION
2
TABLES
0
TABLE
2
VPORT
5
8
100
AcDbSymbolTable
0
ENDTAB
0
TABLE
2
LTYPE
5
5
100
AcDbSymbolTable
0
LTYPE
5
14
100
AcDbSymbolTableRecord
100
AcDbLinetypeTableRecord
2
BYBLOCK
70
0
0
LTYPE
5
15
100
AcDbSymbolTableRecord
100
AcDbLinetypeTableRecord
2
BYLAYER
70
0
0
LTYPE
5
16
100
AcDbSymbolTableRecord
100
AcDbLinetypeTableRecord
2
DASHED
70
0
3
Dashed __ __ __ __ __ __ __ __ __ __ __ __ __ _
72
65
73
2
40
0.75
49
0.5
74
0
49
-0.25
74
0
0
ENDTAB
0
TABLE
2
LAYER
5
2
100
AcDbSymbolTable
70
2
0
LAYER
5
50
100
AcDbSymbolTableRecord
100
AcDbLayerTableRecord
2
0
70
0
62
7
6
CONTINUOUS
0
ENDTAB
0
TABLE
2
STYLE
5
3
100
AcDbSymbolTable
70
1
0
STYLE
5
11
100
AcDbSymbolTableRecord
100
AcDbTextStyleTableRecord
2
STANDARD
70
0
0
ENDTAB
0
TABLE
2
VIEW
5
6
100
AcDbSymbolTable
70
0
0
ENDTAB
0
TABLE
2
UCS
5
7
100
AcDbSymbolTable
70
0
0
ENDTAB
0
TABLE
2
APPID
5
9
100
AcDbSymbolTable
70
2
0
APPID
5
12
100
AcDbSymbolTableRecord
100
AcDbRegAppTableRecord
2
ACAD
70
0
0
ENDTAB
0
TABLE
2
DIMSTYLE
5
A
100
AcDbSymbolTable
70
1
0
ENDTAB
0
TABLE
2
BLOCK_RECORD
5
1
100
AcDbSymbolTable
70
1
0
BLOCK_RECORD
5
1F
100
AcDbSymbolTableRecord
100
AcDbBlockTableRecord
2
*MODEL_SPACE
0
BLOCK_RECORD
5
1B
100
AcDbSymbolTableRecord
100
AcDbBlockTableRecord
2
*PAPER_SPACE
0
ENDTAB
0
ENDSEC
0
SECTION
2
BLOCKS
0
BLOCK
5
20
100
AcDbEntity
100
AcDbBlockBegin
2
*MODEL_SPACE
0
ENDBLK
5
21
100
AcDbEntity
100
AcDbBlockEnd
0
BLOCK
5
1C
100
AcDbEntity
100
AcDbBlockBegin
2
*PAPER_SPACE
0
ENDBLK
5
1D
100
AcDbEntity
100
AcDbBlockEnd
0
ENDSEC
0
SECTION
2
ENTITIES
0
LWPOLYLINE
5
100
100
AcDbEntity
8
0
100
AcDbPolyline
90
4
70
1
43
0.0
10
-84.48977944873468
20
-4.4408920985006262e-15
42
0.99999999999999989
10
-84.48977944873468
20
-60
10
25.510220551265324
20
-60
42
0.99999999999999989
10
25.510220551265324
20
0
0
LWPOLYLINE
5
101
100
AcDbEntity
8
0
100
AcDbPolyline
90
60
70
1
43
0.0
10
225.51022055126532
20
0
10
115.51022055126532
20
-4.4408920985006262e-15
42
0.077791861321385075
10
106.34297699286168
20
-1.4349576310325318
10
105.99479321297009
20
-0.5943676274199472
10
104.14703414794752
20
-1.3597344921501087
10
104.45785535938008
20
-2.1101232762637867
42
0.082578241831881311
10
96.026611691014978
20
-7.1879640150035229
10
95.50412389685539
20
-6.6654762208439244
10
94.089910334482298
20
-8.0796897832170167
10
94.548490305950565
20
-8.5382697546852917
42
0.083033700332008589
10
88.706464465557374
20
-16.525629524988066
10
88.135321908145571
20
-16.28905453165963
10
87.369955043415374
20
-18.136813596682231
10
87.867621632301081
20
-18.342953847338631
42
0.083282006115104043
10
85.576961457073793
20
-28.000000000000007
10
85.010220551265277
20
-28.000000000000007
10
85.010220551265277
20
-30
10
85.51022055126532
20
-30
42
0.083285242567600906
10
87.152107471736542
20
-39.788637421452393
10
86.604588178685248
20
-40.015427338295169
10
87.369955043415416
20
-41.863186403317769
10
87.867621632301081
20
-41.657046152661366
42
0.083043066469191198
10
93.164774570045878
20
-50.017018856473214
10
92.675696772109234
20
-50.506096654409873
10
94.089910334482326
20
-51.920310216782966
10
94.548490305950551
20
-51.461730245314712
42
0.082592672152809021
10
102.62383325722465
20
-57.091345896946279
10
102.29927508292492
20
-57.874898643119707
10
104.14703414794749
20
-58.640265507849861
10
104.45785535938003
20
-57.889876723736222
42
0.094605863458434747
10
115.51022055126532
20
-60
10
225.51022055126532
20
-60
42
0.077791861321385075
10
234.67746410966893
20
-58.565042368967482
10
235.0256478895605
20
-59.405632372580072
10
236.87340695458306
20
-58.64026550784989
10
236.56258574315052
20
-57.889876723736236
42
0.082578241831880964
10
244.99382941151561
20
-52.81203598499652
10
245.51631720567516
20
-53.334523779156093
10
246.93053076804827
20
-51.920310216783001
10
246.47195079658002
20
-51.461730245314754
42
0.083033700332009103
10
252.31397663697325
20
-43.474370475011938
10
252.88511919438503
20
-43.710945468340334
10
253.65048605911517
20
-41.863186403317769
10
253.15281947022953
20
-41.65704615266138
42
0.08328200611510421
10
255.44347964545682
20
-31.999999999999993
10
256.01022055126532
20
-31.999999999999993
10
256.01022055126532
20
-30
10
255.51022055126526
20
-30
42
0.08328524256760117
10
253.86833363079404
20
-20.211362578547615
10
254.41585292384534
20
-19.984572661704831
10
253.65048605911517
20
-18.136813596682231
10
253.1528194702295
20
-18.342953847338631
42
0.083043066469191379
10
247.85566653248469
20
-9.9829811435267928
10
248.34474433042135
20
-9.4939033455901267
10
246.93053076804827
20
-8.0796897832170345
10
246.47195079658002
20
-8.5382697546852881
42
0.082592672152809202
10
238.39660784530591
20
-2.9086541030537538
10
238.72116601960562
20
-2.125101356880279
10
236.87340695458306
20
-1.3597344921501175
10
236.56258574315049
20
-2.1101232762638045
42
0.094605863458434122
0
ENDSEC
0
SECTION
2
OBJECTS
0
DICTIONARY
5
C
100
AcDbDictionary
3
ACAD_GROUP
350
D
3
ACAD_MLINESTYLE
350
17
0
DICTIONARY
5
D
100
AcDbDictionary
0
DICTIONARY
5
1A
330
C
100
AcDbDictionary
0
DICTIONARY
5
17
100
AcDbDictionary
0
ENDSEC
0
EOF
